<svg xmlns="http://www.w3.org/2000/svg" viewBox="0 0 132.75 75.21"><defs><style>.cls-1,.cls-2,.cls-5{fill:#333;}.cls-2{font-size:22px;font-family:AktivGroteskCorp-Bold, Aktiv Grotesk Corp;font-weight:700;letter-spacing:0em;}.cls-3{letter-spacing:-0.09em;}.cls-4{letter-spacing:0em;}.cls-5{font-size:21px;font-family:AktivGroteskCorp-Light, Aktiv Grotesk Corp;font-weight:300;letter-spacing:0em;}.cls-6{letter-spacing:0.01em;}.cls-7{letter-spacing:-0.01em;}</style></defs><g id="Слой_2" data-name="Слой 2"><g id="Слой_1-2" data-name="Слой 1"><path class="cls-1" d="M26.11,54.5a.3.3,0,0,0,0-.56c-2.89-1.3-6.65-8.78-6.22-12.61s3.77-6.91,6.93-8c4.31-1.47,6.71,1.28,9.42-.53,3.25-2.17,1-7.79,4.45-9.07,4-1.45,3.79.74,8.43,1.48,3.46.56,7.38,1.44,14-1,7.34-2.67,20.36-7.87,42.63-14,4.66-3.14,6.89-2.53,8.74-1.85,3.36,1.23,4.1,4.8,7.44,4.16a2.94,2.94,0,0,0,2-2.66c.23-3.48-6.42-6.81-7.12-6.76-9.24.71-36.52,9.45-59.73,18.49-.69.27-2.32,1.06-3.38.36-2.37-1.59,1.56-8.33-1.24-11.56-2.15-2.47-7-1.59-8-1.24-9.65,3.48-6.8,7.7-12.62,9.77C25.32,21.24,22,16.81,14,16.09,7.23,15.48-.4,16.55,0,28.71c.32,9.64,4.15,22.75,22.36,26.72a3.71,3.71,0,0,0,1.52-.08Z"/><circle class="cls-1" cx="106.83" cy="3.11" r="1.42"/><circle class="cls-1" cx="110.66" cy="2.22" r="1.42"/><circle class="cls-1" cx="114.48" cy="1.42" r="1.42"/><text class="cls-2" transform="translate(28.87 51.81)">GUI<tspan class="cls-3" x="37.97" y="0">T</tspan><tspan class="cls-4" x="49.61" y="0">AR</tspan></text><text class="cls-5" transform="translate(45.93 70.64)">S<tspan class="cls-6" x="13.52" y="0">CHOO</tspan><tspan class="cls-7" x="75.47" y="0">L</tspan></text></g></g></svg>